# Blender 3.5.0
# www.blender.org
mtllib player.mtl
o Cube
v -0.460849 1.526949 1.926475
v -0.460849 2.623103 1.926475
v -0.460849 2.623103 11.172264
v -0.460849 2.073489 -0.258063
v -0.119858 1.771162 -0.974487
v -0.460849 1.526949 11.172264
v -0.460849 1.534414 -0.258063
v -0.460849 1.970075 11.172264
v -0.460849 1.970075 1.926475
v -0.103326 1.595891 -0.996123
v -0.460849 2.060148 11.172264
v -0.460849 1.526949 2.707418
v -0.460849 2.623103 2.707418
v -0.460849 1.970075 2.707418
v -0.460849 2.060148 2.707418
v -1.772151 1.970075 11.111526
v -1.772151 2.060148 11.111526
v -3.759619 1.970075 9.057956
v -3.759619 2.060148 9.057956
v -0.460849 1.859677 -0.258063
v -0.025274 2.623103 2.707418
v -0.040230 2.623103 9.876551
v -0.040230 2.623103 11.172264
v -0.040230 4.098171 12.189887
v -0.040230 4.098171 10.894174
v -3.630389 1.998236 13.794794
v -3.630389 2.031987 13.794794
v -5.669165 1.998236 12.436268
v -5.669165 2.031987 12.436268
v -0.360512 2.415434 11.651772
v -0.346824 1.740999 11.651381
v -0.360512 2.152885 11.651772
v -0.113375 1.740999 11.651381
v -0.100337 2.415434 11.651772
v -0.100337 2.152885 11.651772
v -0.346824 1.969188 11.649547
v -0.112042 1.969188 11.649547
v -0.008582 1.859677 -0.258063
v 0.460849 1.526949 1.926475
v 0.460849 2.623103 1.926475
v 0.460849 2.623103 11.172264
v 0.460849 2.073489 -0.258063
v 0.119858 1.771162 -0.974487
v 0.000000 1.684482 -1.131350
v 0.000000 2.623103 11.172264
v 0.000000 1.771162 -0.974487
v 0.460849 1.526949 11.172264
v 0.460849 1.534414 -0.258063
v 0.460849 1.970075 11.172264
v 0.460849 1.970075 1.926475
v 0.103326 1.595891 -0.996123
v 0.460849 2.060148 11.172264
v 0.460849 1.526949 2.707418
v 0.460849 2.623103 2.707418
v 0.460849 1.970075 2.707418
v 0.460849 2.060148 2.707418
v 1.772151 1.970075 11.111526
v 1.772151 2.060148 11.111526
v 3.759619 1.970075 9.057956
v 3.759619 2.060148 9.057956
v 0.000000 1.526949 1.926475
v 0.000000 2.623103 1.926475
v 0.000000 2.073489 -0.258063
v 0.000000 1.526949 11.172264
v 0.000000 1.534414 -0.258063
v 0.000000 1.595891 -0.996123
v 0.000000 1.526949 2.707418
v 0.460849 1.859677 -0.258063
v 0.025274 2.623103 2.707418
v 0.040230 2.623103 9.876551
v 0.040230 2.623103 11.172264
v 0.000000 2.623103 9.876551
v 0.000000 4.098171 12.189887
v 0.000000 4.098171 10.894174
v 0.040230 4.098171 12.189887
v 0.040230 4.098171 10.894174
v 3.630389 1.998236 13.794794
v 3.630389 2.031987 13.794794
v 5.669165 1.998236 12.436268
v 5.669165 2.031987 12.436268
v 0.360512 2.415434 11.651772
v 0.346824 1.740999 11.651381
v 0.360512 2.152885 11.651772
v 0.113375 1.740999 11.651381
v 0.100337 2.415434 11.651772
v 0.100337 2.152885 11.651772
v 0.346824 1.969188 11.649547
v 0.112042 1.969188 11.649547
v 0.000000 1.970075 11.172264
v 0.000000 2.060148 11.172264
v 0.008582 1.859677 -0.258063
v -0.113375 1.740387 11.537025
v -0.346824 1.740387 11.537025
v -0.346824 1.968575 11.535192
v -0.112042 1.968575 11.535192
v 0.360512 2.414822 11.537417
v 0.360512 2.152272 11.537417
v 0.113375 1.740387 11.537025
v 0.346824 1.740387 11.537025
v 0.100337 2.414822 11.537417
v 0.100337 2.152272 11.537417
v 0.346824 1.968575 11.535192
v 0.112042 1.968575 11.535192
v -0.360512 2.415434 11.487247
v -0.360512 2.152885 11.487247
v -0.100337 2.415434 11.487247
v -0.100337 2.152885 11.487247
vn -1.0000 -0.0000 -0.0000
vn -0.7946 -0.0000 -0.6071
vn -0.8985 -0.0307 -0.4378
vn -0.0000 0.8753 -0.4837
vn -0.0000 0.9698 -0.2440
vn -0.0000 0.9213 -0.3888
vn -0.8874 -0.0000 -0.4610
vn -0.0063 1.0000 0.0061
vn -0.0000 -1.0000 -0.0000
vn -0.0463 -0.0000 0.9989
vn -0.0000 1.0000 -0.0000
vn -0.0000 -0.8365 -0.5480
vn -0.0000 -0.9965 -0.0830
vn -0.0000 -1.0000 -0.0034
vn -0.0000 -0.5679 0.8231
vn -0.0000 0.5679 -0.8231
vn -0.5545 -0.0000 0.8322
vn 0.8221 -0.0000 0.5693
vn -0.8706 -0.0000 -0.4921
vn -0.0040 -1.0000 0.0061
vn -0.0000 -0.9130 0.4079
vn -0.9788 -0.0000 0.2048
vn -0.0000 0.9176 0.3974
vn -0.9726 0.0019 0.2324
vn -0.0000 -0.0000 1.0000
vn -0.0000 1.0000 0.0019
vn 0.9731 -0.0000 0.2303
vn -0.0000 -0.9818 0.1899
vn 0.9788 -0.0000 0.2048
vn 1.0000 -0.0000 -0.0000
vn 0.7946 -0.0000 -0.6071
vn 0.9029 -0.0000 -0.4298
vn 0.8874 -0.0000 -0.4610
vn 0.0063 1.0000 0.0061
vn 0.0463 -0.0000 0.9989
vn 0.5545 -0.0000 0.8322
vn -0.8221 -0.0000 0.5693
vn 0.8706 -0.0000 -0.4921
vn 0.0063 -1.0000 0.0061
vn 0.9728 -0.0000 0.2315
vn 1.0000 0.0058 -0.0000
vn -0.9731 -0.0000 0.2303
vn -0.0000 0.0080 1.0000
vn -0.0000 -1.0000 0.0054
vn -0.0000 1.0000 -0.0054
vn -1.0000 0.0058 -0.0000
vn -0.9029 -0.0000 -0.4298
vn -0.0040 1.0000 0.0061
vn -0.0063 -1.0000 0.0061
vn -0.9728 -0.0000 0.2315
vn 0.9735 -0.0039 0.2285
vn 0.8985 -0.0307 -0.4378
vn 0.0040 1.0000 0.0061
vn 0.0040 -1.0000 0.0061
vn 0.9726 0.0019 0.2324
vn -0.9735 -0.0039 0.2285
vt 0.375000 0.750000
vt 0.625000 0.750000
vt 0.625000 0.500000
vt 0.000000 0.000000
vt 0.625000 0.750000
vt 0.000000 0.000000
vt 0.625000 0.750000
vt 0.375000 0.500000
vt 0.375000 0.750000
vt 0.476064 0.500000
vt 0.476064 0.750000
vt 0.409483 0.750000
vt 0.496607 0.500000
vt 0.375000 0.673855
vt 0.625000 0.673855
vt 0.476064 0.673855
vt 0.496607 0.673855
vt 0.476064 0.507676
vt 0.496607 0.507676
vt 0.476064 0.623951
vt 0.496607 0.623951
vt 0.000000 0.000000
vt 0.000000 0.000000
vt 0.000000 0.000000
vt 0.000000 0.000000
vt 0.625000 0.375000
vt 0.625000 0.375000
vt 0.000000 0.000000
vt 0.000000 0.000000
vt 0.476064 0.507676
vt 0.496607 0.507676
vt 0.476064 0.623951
vt 0.496607 0.623951
vt 0.625000 0.500000
vt 0.000000 0.000000
vt 0.375000 0.500000
vt 0.496607 0.500000
vt 0.375000 0.500000
vt 0.000000 0.000000
vt 0.496607 0.500000
vt 0.000000 0.000000
vt 0.000000 0.000000
vt 0.000000 0.000000
vt 0.375000 0.750000
vt 0.625000 0.750000
vt 0.625000 0.500000
vt 0.000000 0.000000
vt 0.625000 0.750000
vt 0.000000 0.000000
vt 0.625000 0.750000
vt 0.625000 0.750000
vt 0.000000 0.000000
vt 0.625000 0.375000
vt 0.750000 0.750000
vt 0.375000 0.500000
vt 0.375000 0.750000
vt 0.476064 0.500000
vt 0.476064 0.750000
vt 0.409483 0.750000
vt 0.496607 0.500000
vt 0.375000 0.673855
vt 0.625000 0.673855
vt 0.476064 0.673855
vt 0.496607 0.673855
vt 0.476064 0.507676
vt 0.496607 0.507676
vt 0.476064 0.623951
vt 0.496607 0.623951
vt 0.375000 0.750000
vt 0.750000 0.750000
vt 0.000000 0.000000
vt 0.750000 0.750000
vt 0.375000 0.500000
vt 0.375000 0.750000
vt 0.409483 0.750000
vt 0.375000 0.673855
vt 0.000000 0.000000
vt 0.000000 0.000000
vt 0.000000 0.000000
vt 0.000000 0.000000
vt 0.625000 0.375000
vt 0.000000 0.000000
vt 0.000000 0.000000
vt 0.000000 0.000000
vt 0.625000 0.375000
vt 0.000000 0.000000
vt 0.000000 0.000000
vt 0.476064 0.507676
vt 0.496607 0.507676
vt 0.476064 0.623951
vt 0.496607 0.623951
vt 0.625000 0.500000
vt 0.000000 0.000000
vt 0.375000 0.500000
vt 0.496607 0.500000
vt 0.375000 0.500000
vt 0.000000 0.000000
vt 0.496607 0.500000
vt 0.000000 0.000000
vt 0.000000 0.000000
vt 0.476064 0.500000
vt 0.496607 0.500000
vt 0.000000 0.000000
vt 0.375000 0.500000
vt 0.375000 0.500000
vt 0.000000 0.000000
vt 0.000000 0.000000
vt 0.625000 0.500000
vt 0.000000 0.000000
vt 0.496607 0.500000
vt 0.375000 0.500000
vt 0.375000 0.500000
vt 0.000000 0.000000
vt 0.496607 0.500000
vt 0.000000 0.000000
vt 0.000000 0.000000
vt 0.000000 0.000000
vt 0.625000 0.500000
vt 0.496607 0.500000
vt 0.000000 0.000000
vt 0.496607 0.500000
s 0
usemtl Glass
f 15/17/1 2/2/1 9/11/1
f 62/70/5 4/5/5 2/2/5
f 4/5/1 9/11/1 2/2/1
f 21/23/11 2/2/11 13/15/11
f 72/82/11 62/70/11 21/23/11
f 4/6/25 38/43/25 63/71/25
f 56/64/30 40/45/30 54/62/30
f 42/48/5 62/70/5 40/45/5
f 42/48/30 50/58/30 68/77/30
f 69/78/11 40/45/11 62/70/11
f 72/82/11 69/78/11 62/70/11
f 91/103/25 42/49/25 63/71/25
f 15/17/1 13/15/1 2/2/1
f 62/70/5 63/72/5 4/5/5
f 4/5/1 20/22/1 9/11/1
f 21/23/11 62/70/11 2/2/11
f 4/6/25 20/22/25 38/43/25
f 56/64/30 50/58/30 40/45/30
f 42/48/5 63/72/5 62/70/5
f 42/48/30 40/45/30 50/58/30
f 69/78/11 54/62/11 40/45/11
f 91/103/25 68/77/25 42/49/25
usemtl Body
f 10/12/2 5/7/2 44/51/2
f 7/9/3 5/7/3 10/12/3
f 44/51/4 5/7/4 46/54/4
f 63/72/6 5/7/6 4/5/6
f 14/16/1 1/1/1 12/14/1
f 15/17/1 9/11/1 14/16/1
f 14/16/7 19/21/7 15/17/7
f 8/10/1 12/14/1 6/8/1
f 3/3/1 15/17/1 11/13/1
f 14/16/9 16/18/9 18/20/9
f 11/13/10 16/18/10 8/10/10
f 15/17/11 17/19/11 11/13/11
f 10/12/12 44/51/12 66/75/12
f 1/1/9 67/76/9 12/14/9
f 12/14/9 64/73/9 6/8/9
f 10/12/13 65/74/13 7/9/13
f 7/9/14 61/69/14 1/1/14
f 7/9/11 20/22/11 4/5/11
f 1/1/1 20/22/1 7/9/1
f 72/82/11 13/15/11 3/3/11
f 64/73/21 31/36/21 6/8/21
f 11/13/22 30/34/22 3/3/22
f 3/4/23 34/39/23 45/52/23
f 30/35/9 106/120/9 34/39/9
f 8/10/24 31/36/24 36/41/24
f 83/95/1 96/108/1 97/110/1
f 8/10/25 90/102/25 11/13/25
f 36/41/26 89/101/26 8/10/26
f 89/101/27 33/38/27 64/73/27
f 90/102/28 32/37/28 11/13/28
f 34/39/29 90/102/29 45/52/29
f 51/59/31 44/51/31 43/50/31
f 48/56/32 43/50/32 42/48/32
f 44/51/4 46/54/4 43/50/4
f 43/50/6 63/72/6 42/48/6
f 39/44/30 55/63/30 53/61/30
f 56/64/30 55/63/30 50/58/30
f 60/68/33 55/63/33 56/64/33
f 53/61/30 49/57/30 47/55/30
f 56/64/30 41/46/30 52/60/30
f 55/63/9 57/65/9 49/57/9
f 57/65/35 52/60/35 49/57/35
f 58/66/11 56/64/11 52/60/11
f 51/59/12 66/75/12 44/51/12
f 67/76/9 39/44/9 53/61/9
f 64/73/9 53/61/9 47/55/9
f 65/74/13 51/59/13 48/56/13
f 61/69/14 48/56/14 39/44/14
f 48/56/11 42/48/11 68/77/11
f 68/77/30 39/44/30 48/56/30
f 41/46/11 69/78/11 72/82/11
f 82/94/21 64/73/21 47/55/21
f 81/92/29 52/60/29 41/46/29
f 85/97/23 41/47/23 45/52/23
f 31/36/30 94/106/30 36/41/30
f 49/57/40 82/94/40 47/55/40
f 84/96/41 103/116/41 88/100/41
f 90/102/25 49/57/25 52/60/25
f 89/101/26 87/99/26 49/57/26
f 84/96/42 89/101/42 64/73/42
f 83/95/28 90/102/28 52/60/28
f 90/102/22 85/97/22 45/52/22
f 82/94/1 102/115/1 99/112/1
f 36/41/44 95/107/44 37/42/44
f 82/94/45 98/111/45 84/96/45
f 83/95/45 101/114/45 86/98/45
f 33/38/45 93/105/45 31/36/45
f 88/100/44 102/115/44 87/99/44
f 33/38/46 95/107/46 92/104/46
f 85/97/44 96/109/44 81/93/44
f 86/98/30 100/113/30 85/97/30
f 32/37/30 104/118/30 30/34/30
f 34/39/1 107/121/1 35/40/1
f 35/40/11 105/119/11 32/37/11
f 7/9/47 4/5/47 5/7/47
f 63/72/6 46/54/6 5/7/6
f 14/16/1 9/11/1 1/1/1
f 14/16/7 18/20/7 19/21/7
f 8/10/1 14/16/1 12/14/1
f 3/3/1 13/15/1 15/17/1
f 14/16/9 8/10/9 16/18/9
f 11/13/10 17/19/10 16/18/10
f 15/17/11 19/21/11 17/19/11
f 1/1/9 61/69/9 67/76/9
f 12/14/9 67/76/9 64/73/9
f 10/12/13 66/75/13 65/74/13
f 7/9/14 65/74/14 61/69/14
f 1/1/1 9/11/1 20/22/1
f 3/3/11 45/53/11 72/82/11
f 72/82/11 21/23/11 13/15/11
f 64/73/21 33/38/21 31/36/21
f 11/13/22 32/37/22 30/34/22
f 3/4/23 30/35/23 34/39/23
f 30/35/9 104/117/9 106/120/9
f 8/10/50 6/8/50 31/36/50
f 83/95/1 81/92/1 96/108/1
f 8/10/25 89/101/25 90/102/25
f 36/41/26 37/42/26 89/101/26
f 89/101/51 37/42/51 33/38/51
f 90/102/28 35/40/28 32/37/28
f 34/39/29 35/40/29 90/102/29
f 48/56/52 51/59/52 43/50/52
f 43/50/6 46/54/6 63/72/6
f 39/44/30 50/58/30 55/63/30
f 60/68/33 59/67/33 55/63/33
f 53/61/30 55/63/30 49/57/30
f 56/64/30 54/62/30 41/46/30
f 55/63/9 59/67/9 57/65/9
f 57/65/35 58/66/35 52/60/35
f 58/66/11 60/68/11 56/64/11
f 67/76/9 61/69/9 39/44/9
f 64/73/9 67/76/9 53/61/9
f 65/74/13 66/75/13 51/59/13
f 61/69/14 65/74/14 48/56/14
f 68/77/30 50/58/30 39/44/30
f 72/82/11 45/53/11 41/46/11
f 41/46/11 54/62/11 69/78/11
f 82/94/21 84/96/21 64/73/21
f 81/92/29 83/95/29 52/60/29
f 85/97/23 81/93/23 41/47/23
f 31/36/30 93/105/30 94/106/30
f 49/57/55 87/99/55 82/94/55
f 84/96/41 98/111/41 103/116/41
f 90/102/25 89/101/25 49/57/25
f 89/101/26 88/100/26 87/99/26
f 84/96/56 88/100/56 89/101/56
f 83/95/28 86/98/28 90/102/28
f 90/102/22 86/98/22 85/97/22
f 82/94/1 87/99/1 102/115/1
f 36/41/44 94/106/44 95/107/44
f 82/94/45 99/112/45 98/111/45
f 83/95/45 97/110/45 101/114/45
f 33/38/45 92/104/45 93/105/45
f 88/100/44 103/116/44 102/115/44
f 33/38/46 37/42/46 95/107/46
f 85/97/44 100/113/44 96/109/44
f 86/98/30 101/114/30 100/113/30
f 32/37/30 105/119/30 104/118/30
f 34/39/1 106/120/1 107/121/1
f 35/40/11 107/121/11 105/119/11
usemtl Material.002
f 19/21/8 27/31/8 17/19/8
f 29/33/17 26/30/17 27/31/17
f 17/19/18 26/30/18 16/18/18
f 18/20/19 29/33/19 19/21/19
f 18/20/20 26/30/20 28/32/20
f 78/89/34 60/68/34 58/66/34
f 77/88/36 80/91/36 78/89/36
f 77/88/37 58/66/37 57/65/37
f 80/91/38 59/67/38 60/68/38
f 59/67/39 77/88/39 57/65/39
f 19/21/48 29/33/48 27/31/48
f 29/33/17 28/32/17 26/30/17
f 17/19/18 27/31/18 26/30/18
f 18/20/19 28/32/19 29/33/19
f 18/20/49 16/18/49 26/30/49
f 78/89/53 80/91/53 60/68/53
f 77/88/36 79/90/36 80/91/36
f 77/88/37 78/89/37 58/66/37
f 80/91/38 79/90/38 59/67/38
f 59/67/54 79/90/54 77/88/54
usemtl Material.003
f 73/83/15 23/25/15 45/52/15
f 23/26/1 25/29/1 22/24/1
f 45/53/9 22/24/9 72/82/9
f 72/82/16 25/29/16 74/84/16
f 74/84/11 24/28/11 73/83/11
f 71/80/15 73/83/15 45/52/15
f 76/87/30 71/81/30 70/79/30
f 70/79/9 45/53/9 72/82/9
f 76/87/16 72/82/16 74/84/16
f 75/86/11 74/84/11 73/83/11
f 73/83/15 24/28/15 23/25/15
f 23/26/1 24/27/1 25/29/1
f 45/53/9 23/26/9 22/24/9
f 72/82/16 22/24/16 25/29/16
f 74/84/11 25/29/11 24/28/11
f 71/80/15 75/86/15 73/83/15
f 76/87/30 75/85/30 71/81/30
f 70/79/9 71/81/9 45/53/9
f 76/87/16 70/79/16 72/82/16
f 75/86/11 76/87/11 74/84/11
usemtl Thruster
f 94/106/43 92/104/43 95/107/43
f 96/108/25 101/114/25 97/110/25
f 98/111/43 102/115/43 103/116/43
f 107/121/25 104/118/25 105/119/25
f 94/106/43 93/105/43 92/104/43
f 96/108/25 100/113/25 101/114/25
f 98/111/43 99/112/43 102/115/43
f 107/121/25 106/120/25 104/118/25
o Cube.001
v -0.212464 2.296201 11.395961
v -0.212464 2.315312 11.395961
v -0.212464 2.296201 11.415071
v -0.212464 2.315312 11.415071
v -0.231574 2.296201 11.395961
v -0.231574 2.315312 11.395961
v -0.231574 2.296201 11.415071
v -0.231574 2.315312 11.415071
vn 1.0000 -0.0000 -0.0000
vn -0.0000 -0.0000 1.0000
vn -1.0000 -0.0000 -0.0000
vn -0.0000 -0.0000 -1.0000
vn -0.0000 -1.0000 -0.0000
vn -0.0000 1.0000 -0.0000
vt 0.375000 0.000000
vt 0.375000 1.000000
vt 0.125000 0.750000
vt 0.625000 0.000000
vt 0.625000 1.000000
vt 0.875000 0.750000
vt 0.125000 0.500000
vt 0.375000 0.250000
vt 0.625000 0.250000
vt 0.875000 0.500000
vt 0.375000 0.750000
vt 0.625000 0.750000
vt 0.375000 0.500000
vt 0.625000 0.500000
s 0
f 109/125/57 110/129/57 108/122/57
f 111/130/58 114/134/58 110/129/58
f 115/135/59 112/132/59 114/134/59
f 113/133/60 108/123/60 112/132/60
f 114/134/61 108/124/61 110/128/61
f 111/131/62 113/133/62 115/135/62
f 109/125/57 111/130/57 110/129/57
f 111/130/58 115/135/58 114/134/58
f 115/135/59 113/133/59 112/132/59
f 113/133/60 109/126/60 108/123/60
f 114/134/61 112/132/61 108/124/61
f 111/131/62 109/127/62 113/133/62
