# Blender 3.5.0
# www.blender.org
mtllib knife.mtl
o Cube.002
v -0.570520 0.457668 2.830022
v -0.570520 -0.660738 3.056159
v -0.570520 -0.201528 -0.430166
v -0.570520 -1.319934 -0.204029
v 0.570520 0.457668 2.830022
v 0.570520 -0.660738 3.056159
v 0.570520 -0.201528 -0.430166
v 0.570520 -1.319934 -0.204029
v -0.570520 0.570520 3.045379
v -0.570520 -0.570520 3.045379
v -0.570520 0.570520 -3.045379
v -0.570520 -0.570520 -3.045379
v 0.570520 0.570520 3.045379
v 0.570520 -0.570520 3.045379
v 0.570520 0.570520 -3.045379
v 0.570520 -0.570520 -3.045379
v -0.528374 0.544149 3.024732
v -0.528374 -0.478025 2.771248
v -0.528374 1.301098 -0.027674
v -0.528374 0.278924 -0.281157
v 0.528374 0.544149 3.024732
v 0.528374 -0.478025 2.771248
v 0.528374 1.301098 -0.027674
v 0.528374 0.278924 -0.281157
vn -0.0000 0.9802 -0.1982
vn -0.0000 -0.1982 -0.9802
vn 1.0000 -0.0000 -0.0000
vn -0.0000 -0.9802 0.1982
vn -1.0000 -0.0000 -0.0000
vn -0.0000 0.1982 0.9802
vn -0.0000 1.0000 -0.0000
vn -0.0000 -0.0000 -1.0000
vn -0.0000 -1.0000 -0.0000
vn -0.0000 -0.0000 1.0000
vn -0.0000 0.9706 0.2407
vn -0.0000 0.2407 -0.9706
vn -0.0000 -0.9706 -0.2407
vn -0.0000 -0.2407 0.9706
vt 0.625000 0.500000
vt 0.375000 0.500000
vt 0.625000 0.750000
vt 0.375000 0.750000
vt 0.875000 0.500000
vt 0.625000 0.250000
vt 0.125000 0.500000
vt 0.375000 0.250000
vt 0.875000 0.750000
vt 0.625000 1.000000
vt 0.625000 0.000000
vt 0.375000 1.000000
vt 0.375000 0.000000
vt 0.125000 0.750000
vt 0.625000 0.500000
vt 0.375000 0.500000
vt 0.625000 0.750000
vt 0.375000 0.750000
vt 0.875000 0.500000
vt 0.625000 0.250000
vt 0.125000 0.500000
vt 0.375000 0.250000
vt 0.875000 0.750000
vt 0.625000 1.000000
vt 0.625000 0.000000
vt 0.375000 1.000000
vt 0.375000 0.000000
vt 0.125000 0.750000
vt 0.625000 0.500000
vt 0.375000 0.500000
vt 0.625000 0.750000
vt 0.375000 0.750000
vt 0.875000 0.500000
vt 0.625000 0.250000
vt 0.125000 0.500000
vt 0.375000 0.250000
vt 0.875000 0.750000
vt 0.625000 1.000000
vt 0.625000 0.000000
vt 0.375000 1.000000
vt 0.375000 0.000000
vt 0.125000 0.750000
s 0
usemtl Material.002
f 1/1/1 5/5/1 7/9/1 3/3/1
f 4/4/2 3/3/2 7/10/2 8/12/2
f 8/13/3 7/11/3 5/6/3 6/8/3
f 6/7/4 2/2/4 4/4/4 8/14/4
f 2/2/5 1/1/5 3/3/5 4/4/5
f 6/8/6 5/6/6 1/1/6 2/2/6
usemtl Material.001
f 9/15/7 13/19/7 15/23/7 11/17/7
f 12/18/8 11/17/8 15/24/8 16/26/8
f 16/27/3 15/25/3 13/20/3 14/22/3
f 14/21/9 10/16/9 12/18/9 16/28/9
f 10/16/5 9/15/5 11/17/5 12/18/5
f 14/22/10 13/20/10 9/15/10 10/16/10
usemtl Material.003
f 17/29/11 21/33/11 23/37/11 19/31/11
f 20/32/12 19/31/12 23/38/12 24/40/12
f 24/41/3 23/39/3 21/34/3 22/36/3
f 22/35/13 18/30/13 20/32/13 24/42/13
f 18/30/5 17/29/5 19/31/5 20/32/5
f 22/36/14 21/34/14 17/29/14 18/30/14
